<svg viewBox="0 0 63.02 61.15" xmlns="http://www.w3.org/2000/svg"><path d="m512 482.37c-27.77 2.63-30 28.46-30 28.68-2.26 25.27 22.48 31.57 22.53 31.58.3.1 7.47 2.39 12.48-1.25a12.19 12.19 0 0 0 4.43-10.52v-3.86a6.78 6.78 0 0 1 1.67-4.63 6.35 6.35 0 0 1 4.65-1.5c5.35.63 15.61-.9 17.09-11.3 0 0 0-.38 0-1a20.31 20.31 0 0 0 -1.11-7.13c-8.67-21.44-31.61-19.1-31.74-19.07zm-16.47 17.68v-.27a5.61 5.61 0 0 1 11.22-.27v.27a5.62 5.62 0 0 1 -11.22.27zm13.71 22.07a5.58 5.58 0 0 1 1.76 3.88v.27a5.62 5.62 0 0 1 -11.23.25v-.27a5.61 5.61 0 0 1 9.39-4.15zm-8.24-7.71v.27a5.62 5.62 0 0 1 -11.23.27v-.27a5.62 5.62 0 0 1 11.23-.27zm31.8-14.89a5.53 5.53 0 0 1 1.83 3.89v.27a5.61 5.61 0 0 1 -11.22.27v-.27a5.62 5.62 0 0 1 9.39-4.16zm-11.23-4.71v.27a5.62 5.62 0 0 1 -11.23.27v-.27a5.62 5.62 0 0 1 11.23-.27z" fill="#8cc9ba" transform="translate(-481.86 -482.28)"/></svg>