<svg viewBox="0 0 64.91 63" xmlns="http://www.w3.org/2000/svg"><path d="m511.94 482a33.08 33.08 0 0 0 -30.84 29.55c-2.34 26 23.14 32.53 23.21 32.55a15.84 15.84 0 0 0 12.85-1.28 12.52 12.52 0 0 0 4.56-10.85v-4a7 7 0 0 1 1.73-4.76 6.53 6.53 0 0 1 4.77-1.55c5.51.64 16.08-.93 17.6-11.65 0 0 0-.39 0-1a20.62 20.62 0 0 0 -1.14-7.34c-8.91-22.16-32.54-19.67-32.74-19.67zm-17 18.22v-.28a5.79 5.79 0 1 1 11.58-.28v.28a5.79 5.79 0 0 1 -11.58.27zm14.13 22.74a5.75 5.75 0 0 1 1.89 4v.28a5.79 5.79 0 0 1 -11.57.27v-.29a5.78 5.78 0 0 1 9.67-4.29zm-8.46-8v.29a5.79 5.79 0 0 1 -11.57.27v-.27a5.79 5.79 0 1 1 11.57-.27zm32.77-15.34a5.75 5.75 0 0 1 1.89 4v.27a5.79 5.79 0 1 1 -11.57.28v-.28a5.78 5.78 0 0 1 9.67-4.28zm-11.57-4.85v.27a5.79 5.79 0 1 1 -11.57.28v-.28a5.79 5.79 0 0 1 11.57-.27z" fill="#cfcfcf" transform="translate(-480.94 -481.88)"/></svg>