<svg viewBox="0 0 15.79 15.79" xmlns="http://www.w3.org/2000/svg"><g fill="#8cc9ba" transform="translate(-242.27 -202.69)"><path d="m251.57 202.69a.33.33 0 0 1 .18.35v5.14h1.7c.27 0 .33.15.16.36-1 1.24-2 2.47-3 3.7-.32.4-.48.4-.82 0l-3.06-3.57a1.08 1.08 0 0 1 -.13-.29 1.49 1.49 0 0 1 .3-.09h1.69v-5.29a.29.29 0 0 1 .2-.32z"/><path d="m242.28 212.76h2.18v3.59h11.41v-3.59h2.18v.16 4.39a1.09 1.09 0 0 1 -1 1.17h-13.59a1.07 1.07 0 0 1 -1.14-.79 1.27 1.27 0 0 1 0-.34v-4.46a.57.57 0 0 1 -.04-.13z"/></g></svg>