<svg viewBox="0 0 13.74 14.96" xmlns="http://www.w3.org/2000/svg"><g fill="#8cc9ba" transform="translate(-243.3 -203.07)"><path d="m246.36 208.71v8.39a1.74 1.74 0 0 1 -1.3.58 1.75 1.75 0 0 1 -1.76-1.75v-6.05a1.76 1.76 0 0 1 1.76-1.76 1.78 1.78 0 0 1 1.24.51s0 .05.06.08"/><path d="m257 210.52-1.1 5.48a2.34 2.34 0 0 1 -2.59 2l-4.87-.56a1.52 1.52 0 0 1 -1-.54c0-.06-.11-.12-.16-.19v-8l4.61-5.14a1.43 1.43 0 0 1 1.11-.5 1.47 1.47 0 0 1 1.47 1.49 1.44 1.44 0 0 1 -.15.65l-1.32 2.66a.44.44 0 0 0 .19.6.46.46 0 0 0 .2.05l2.13.08a1.61 1.61 0 0 1 1.54 1.66 1.09 1.09 0 0 1 0 .26"/></g></svg>