<svg viewBox="0 0 161.46 192.37" xmlns="http://www.w3.org/2000/svg"><path d="m85.19 120.11v71.75" fill="none" stroke="#ffb000" stroke-miterlimit="10" stroke-width="6"/><path d="m116.89 120.11v71.75" fill="none" stroke="#ffb000" stroke-miterlimit="10" stroke-width="6"/><path d="m84.89 180.32h31.61" fill="none" stroke="#ffb000" stroke-miterlimit="10" stroke-width="6"/><g transform="translate(-449.36 -379.65)"><path d="m531.45 490.14h37.55a4.81 4.81 0 0 1 4.8 4.81 4.8 4.8 0 0 1 -4.8 4.81h-37.55a4.8 4.8 0 0 1 -4.8-4.81 4.81 4.81 0 0 1 4.8-4.81z" fill="#fff" stroke="#6562cf" stroke-miterlimit="10" stroke-width="6"/><path d="m565.48 420.87c2.6-.73 6.21-8.83 2.26-13.22s-12.33-4.52-19.44-3.45c-6.57 1-15.2 4.8-11.91 13 4.68 11.71 29.09 3.67 29.09 3.67z" fill="#ffb819"/><path d="m561.54 415.36c2.47-.53 6.7-4.63 3-7.75s-9.45-3.42-15.56-2.38-12.43 3.2-9.53 9.12 22.09 1.01 22.09 1.01z" fill="#f49c00"/><path d="m576.09 570.8c-1.59 1-11.35.92-13.19 0s-1.41-4-1.71-6.14-4.66-6-4.91-7.36 4.48-4.29 5.3-5.49c-.67 2 6.08 2.42 6.63 1.13-.27 4.73 3.2 12.24 6 12.92 1.84.42 3.48 3.95 1.88 4.94z" fill="#dbdaff"/><path d="m569.66 547.78-1.46 5.16c-.54 1.29-7.3.86-6.63-1.13a17.87 17.87 0 0 0 .42-5.45z" fill="#c36f0b"/><path d="m556.28 557.3c.25 1.35 4.6 5.28 4.91 7.37s-.12 5.21 1.72 6.13 11.59 1 13.19 0" fill="none" stroke="#6562cf" stroke-linecap="round" stroke-miterlimit="10"/><path d="m568.58 565.85a9.66 9.66 0 0 1 6.45-.31" fill="none" stroke="#fff" stroke-linecap="round" stroke-miterlimit="10"/><path d="m531.65 570.79c1.59 1 10.27.93 12.11 0s3-4 3.26-6.13 3.27-6.78 3.52-8.13-4.48-4.3-5.3-5.5c.67 2-5.93 3.2-6.47 1.91.26 4.73-2.44 12.24-5.29 12.91-1.79.43-3.43 3.96-1.83 4.94z" fill="#dbdaff"/><path d="m535.47 547.47 3.3 5.47c.54 1.29 7.15.09 6.47-1.9a25.69 25.69 0 0 1 -.88-5.15z" fill="#c36f0b"/><path d="m550.54 556.53c-.25 1.35-3.22 6.05-3.52 8.14s-1.42 5.21-3.26 6.13-10.52 1-12.11 0" fill="none" stroke="#6562cf" stroke-linecap="round" stroke-miterlimit="10"/><path d="m539.16 565.85a9.66 9.66 0 0 0 -6.45-.31" fill="none" stroke="#fff" stroke-linecap="round" stroke-miterlimit="10"/><path d="m534.58 469.38s-32.09 15.71-32.09 25.38c0 17.24 28.7 53.62 33.63 53.14s9.78-1.52 9.59-3.61-10.51-34.8-18.53-44.48c0 0 2.93-4.61 21.22-4.41 8.82.1 16.5.7 16.7 1s-9.59 19.36-4.6 48.85c.43 2.57 11.18 3.65 12.22 2.23s17.73-51.48 16.12-55.48-18.34-18.26-26.5-22.6c-5.87-3.16-27.76-.02-27.76-.02z" fill="#3f4d79"/><path d="m525.42 419.54c-4.07 2.23-10.15 22.27-10.15 22.27s-14.66-18-15.34-18.16-4.61 5.09-4.61 5.09 7.65 34.15 19.58 34.91c5 .32 9.25-2.58 12.72-6.83 1.55 5.14 3 9.38 3 9.38.62 2.15-10.88 8.1-8.26 9.73 0 0 9-2.92 24.76 1.16 18.89 4.87 28 1.17 26.23-.24s-4.59-6-5.56-9.11l1.75-16.59s6.1 15.48 15.31 15.48c11 0 21-33.62 21-33.62a13 13 0 0 1 -7.15-2.9c-4.1 2.89-12.7 13.07-12.7 13.07s-5.36-16.2-7.93-19.89-10.94-6.59-16.53-7.93l-22.11-1c-1.43-.29-10.55 2.81-14.01 5.18z" fill="#ffb000"/><path d="m586 442.5c-2.8 3.21-5.32 8.93-5.32 8.93" fill="none" stroke="#f49c00" stroke-miterlimit="10"/><path d="m568.43 417.8c-10.73-.91-21.51 5.84-21.51 5.84s-9.48-2.12-11.37-8.43" fill="none" stroke="#f49c00" stroke-miterlimit="10"/><path d="m530.91 466.2s-5.92-17-6.75-24.2" fill="none" stroke="#f49c00" stroke-linecap="round" stroke-miterlimit="10"/><path d="m605.57 420.74c-.14.92-1.14 2.34-.15 2.33.51 0 4.18-.6 4.63.75a2.91 2.91 0 0 1 -.1 1.95 2 2 0 0 1 .19 2.19 2.1 2.1 0 0 1 .28 2.14s.85 2 0 2.43a13.74 13.74 0 0 1 -8.49 1.2c-1.36-.35-3-1.2-3.42-4.1-.18-1.19 1-4.32 1.92-5.6.37-.53 1.72-2.65 2.18-3.23a6.8 6.8 0 0 0 1.3-2.88s2.09.26 1.66 2.82z" fill="#c36f0b"/><path d="m608.87 423.64c.09.62-3.67.75-4.32.89-.92.2-.8 2.17.4 2a24.58 24.58 0 0 0 4.83-.7" fill="none" stroke="#b65a18" stroke-linecap="round" stroke-miterlimit="10"/><path d="m609.9 428a24.42 24.42 0 0 1 -5 .73c-.58.11-1.32-1.94.08-2.2" fill="none" stroke="#b65a18" stroke-linecap="round" stroke-miterlimit="10"/><path d="m610 430a21.35 21.35 0 0 1 -5 .72c-.56.07-1.25-1.88-.12-2" fill="none" stroke="#b65a18" stroke-linecap="round" stroke-miterlimit="10"/><path d="m606 430.73s-1.33-.12-1.31.71c0 1.48.75 1.64 4.13 1" fill="none" stroke="#b65a18" stroke-linecap="round" stroke-miterlimit="10"/><path d="m494.59 416.19c0 .93.84 2.45-.13 2.32-.5-.07-4.06-1.1-4.66.17a3 3 0 0 0 -.15 1.94 2 2 0 0 0 -.45 2.13 2.1 2.1 0 0 0 -.53 2.09s-1.08 1.83-.33 2.38a13.66 13.66 0 0 0 8.22 2.22c1.38-.18 3.11-.82 3.87-3.63.31-1.16-.47-4.37-1.21-5.76-.3-.57-1.38-2.82-1.76-3.44a6.82 6.82 0 0 1 -.92-3s-2.04.01-1.95 2.58z" fill="#c36f0b"/><path d="m490 427.35c3.26 1 4 .95 4.2-.5.07-.46-.33-.68-.68-.77l.5.07c.5.12 1.33-1.57.59-2a3.38 3.38 0 0 0 .63-2.24c.58-.4.62-1.57-.05-1.81s-4.31-.81-4.16-1.4z" fill="#c36f0b"/><path d="m490 420.68a24.88 24.88 0 0 0 4.5 1.28c1.15.33 1.51-1.6.63-1.91-.63-.22-3.58-1.18-4.16-1.4" fill="none" stroke="#b65a18" stroke-linecap="round" stroke-miterlimit="10" stroke-width="3"/><path d="m489.63 422.81a27.26 27.26 0 0 0 4.69 1.33c.56.18 1.54-1.75.19-2.18" fill="none" stroke="#b65a18" stroke-linecap="round" stroke-miterlimit="10" stroke-width="3"/><path d="m489.1 424.81a20.63 20.63 0 0 0 4.88 1.33c.53.14 1.28-1.88 0-2.06" fill="none" stroke="#b65a18" stroke-linecap="round" stroke-miterlimit="10" stroke-width="3"/><path d="m492.94 426s1.33 0 1.21.86c-.22 1.45-.94 1.52-4.2.5" fill="none" stroke="#b65a18" stroke-linecap="round" stroke-miterlimit="10" stroke-width="3"/><path d="m556.85 401s-2.34 10.5 4.69 14.41c0 0-6.47 1.11-14.74 7.93 0 0-6.37-5.36-7.37-8.94 0 0 6.47-2.23 5.81-13.4z" fill="#c36f0b"/><path d="m556.85 401h-11.61c.67 11.17-5.81 13.4-5.81 13.4s12.92 0 16.57-11.52z" fill="#b65a18"/><path d="m557.3 400.84a13.48 13.48 0 0 1 -11.7 6.73c-7.35 0-8.47-21.58 2.48-21.88 10.43-.28 9.09 12.07 9.09 12.07s1.88-1.09 2.56 0-2.43 3.08-2.43 3.08z" fill="#c36f0b"/><path d="m552.47 386.5s-.12 3.74-5.29 3.68c-4.5-.05-7 2.49-7.2 4.32" fill="none" stroke="#3f4d79" stroke-linecap="round" stroke-miterlimit="10" stroke-width="3"/><path d="m566.65 393.88c0 4.07-4.91 7.59-10.35 10a3.47 3.47 0 0 1 -1.5.12 13.25 13.25 0 0 0 2.5-3.13s3.1-1.94 2.43-3.05-2.57 0-2.57 0 1-8.61-4.82-11.28c0 .08-1.54 2.72-6 2.86-4.2.13-5.35 1.73-5.83 3.41a1.54 1.54 0 0 0 0 .17 18.86 18.86 0 0 0 -.38 6.82c-.4-.5-6-7.57-4.53-11.36 1.59-4.12 11.7-9.93 19.8-8.5 4.48.74 11.25 11.8 11.25 13.94z" fill="#3f4d79"/><path d="m530 452.22h-62.08a4.06 4.06 0 0 1 -3.85-2.77l-13.15-39.16a2.85 2.85 0 0 1 1.8-3.62 2.8 2.8 0 0 1 .91-.15h62.06a4.06 4.06 0 0 1 3.85 2.77l13.14 39.15a2.86 2.86 0 0 1 -1.79 3.63 2.8 2.8 0 0 1 -.91.15z" fill="#c7bfff"/><path d="m528.56 453.75h-62a4.08 4.08 0 0 1 -3.86-2.77l-13.14-39.16a2.85 2.85 0 0 1 1.8-3.62 2.8 2.8 0 0 1 .91-.15h62a4.06 4.06 0 0 1 3.85 2.77l13.15 39.18a2.86 2.86 0 0 1 -2.71 3.77z" fill="#fff"/><path d="m530 452.1h-62.08a4.07 4.07 0 0 1 -3.85-2.78l-13.15-39.15a2.85 2.85 0 0 1 1.8-3.62 2.8 2.8 0 0 1 .91-.15h62.06a4.08 4.08 0 0 1 3.85 2.77l13.15 39.15a2.86 2.86 0 0 1 -2.69 3.78z" fill="none" stroke="#6562cf" stroke-miterlimit="10"/><path d="m503.14 439.82 4.72 11.75h-10.21s1.99-9.19 5.49-11.75z" fill="#e2e2ff"/><path d="m509.92 466.31c-20.09 0-11.64-21.5-7.64-26h-15.47c-4 4.47-14.8 27.15 5.29 27.15h17.82z" fill="#fff" stroke="#6562cf" stroke-miterlimit="10"/></g><ellipse cx="489.74" cy="428.12" fill="#e2e2ff" rx="2.94" ry="3.7" transform="matrix(.53 -.85 .85 .53 -583.06 234.1)"/><ellipse cx="490.73" cy="427.29" fill="none" rx="2.94" ry="3.7" stroke="#6562cf" stroke-miterlimit="10" transform="matrix(.53 -.85 .85 .53 -581.89 234.54)"/><path d="m463.8 467.49h92a2.37 2.37 0 0 1 2.45 2.28 2.38 2.38 0 0 1 -2.45 2.29h-92z" fill="#fff" transform="translate(-449.36 -379.65)"/><path d="m463.8 467.49h92a2.37 2.37 0 0 1 2.45 2.28 2.38 2.38 0 0 1 -2.45 2.29h-92" fill="none" stroke="#6562cf" stroke-miterlimit="10" transform="translate(-449.36 -379.65)"/></svg>