<svg viewBox="0 0 133.72 91.62" xmlns="http://www.w3.org/2000/svg"><path d="m499.65 511.6c.13 1-1.37 2.83-1.37 3.81 0 .36 1.37.85 2.65 1.48a18.43 18.43 0 0 0 3.61 1.66h3.46a2.37 2.37 0 0 0 -2-2.34c-2.13-.34-3.26-4.67-3.26-4.67z" fill="#3f4d90" transform="translate(-463.28 -429.72)"/><path d="m498.19 515.55c1.56.76 5.8 3.07 6.35 3.07h3.46" fill="none" stroke="#d2aa92" stroke-linecap="round" stroke-miterlimit="10" transform="translate(-463.28 -429.72)"/><path d="m39.9 85.35 1.27-.49" fill="none" stroke="#d2aa92" stroke-linecap="round" stroke-miterlimit="10" stroke-width=".2"/><path d="m39.19 84.57 1.55-.57" fill="none" stroke="#d2aa92" stroke-linecap="round" stroke-miterlimit="10" stroke-width=".2"/><path d="m492.94 475.4s13.51-.49 19.24 3.05c2.53 1.55-8.48 33.55-8.48 33.55s-3.59.06-5.5-.9c0 0-2.58-17.64 3.81-24.62 0 0-14.79 2.06-21.38-2.64z" fill="#d2aa92" transform="translate(-463.28 -429.72)"/><path d="m509.46 512.1c.14 1-1.3 2.83-1.3 3.81 0 .36 1.3.85 2.58 1.48a18.39 18.39 0 0 0 3.61 1.65h3.49a2.36 2.36 0 0 0 -2-2.33c-2.12-.34-3.26-4.67-3.26-4.67z" fill="#3f4d90" transform="translate(-463.28 -429.72)"/><path d="m508.07 516c1.57.77 5.73 3.07 6.28 3.07h3.49" fill="none" stroke="#d2aa92" stroke-linecap="round" stroke-miterlimit="10" transform="translate(-463.28 -429.72)"/><path d="m50.35 85.64.63-.29" fill="none" stroke="#d2aa92" stroke-linecap="round" stroke-miterlimit="10" stroke-width=".2"/><path d="m49.64 84.85.92-.35" fill="none" stroke="#d2aa92" stroke-linecap="round" stroke-miterlimit="10" stroke-width=".2"/><path d="m478.67 484.89c8.12 6.29 27.84 3.6 27.84 3.6s-3.65 6.41 1.73 24.11a18.44 18.44 0 0 0 5.14 0s.36-13.3 2.28-27.57c.36-2.69-9.2-6.88-23.85-7.45z" fill="#d8baa3" transform="translate(-463.28 -429.72)"/><path d="m474.91 440.88c-.62-.67-3.26-4.8-1.89-7.94a5 5 0 0 1 6.3-2.95s1.7-.68 4.21 1.7 3.78 5.12 2.65 6.86a17.56 17.56 0 0 1 -2.57 3c-.6.8-2.13 2.9-4.15 1.83-2.22-1.18-4.55-2.5-4.55-2.5z" fill="#ffb000" transform="translate(-463.28 -429.72)"/><path d="m475.6 440a25 25 0 0 1 -2.83 4.16l5.78 2.67s1-2.89 1.42-3.84c.31-.66-2.19-2.48-3-4.18-.46-1-.9-1.13-1.09-1-1.1.48-.28 2.19-.28 2.19z" fill="#ffcfc9" transform="translate(-463.28 -429.72)"/><path d="m476.65 440a2.28 2.28 0 0 0 .51 2 15.59 15.59 0 0 0 2.56 1.5c-.24.56-.52 1.38-.75 2a5 5 0 0 1 -2.43-3.06 3.93 3.93 0 0 1 .11-2.44z" fill="#fab6ad" transform="translate(-463.28 -429.72)"/><path d="m476.65 440a2.22 2.22 0 0 0 .51 2 13.44 13.44 0 0 0 4.33 2.12c1.32.2 2.83-3.67 2.93-5.17s.54-5.35-2.52-5.35c-1.35-.01-4.99 5.29-5.25 6.4z" fill="#ffcfc9" transform="translate(-463.28 -429.72)"/><path d="m491.81 477.58a4.91 4.91 0 0 0 1.14-2.19s-8.43-6.42-12.4-25.94h-.42a41.22 41.22 0 0 0 11.68 28.13z" fill="#f0e1d4" transform="translate(-463.28 -429.72)"/><path d="m480.53 449.42c2.88 1.55 8 11.6 8 11.6l-4.59 4.91a65.51 65.51 0 0 0 7.88 11.65c-4.13 5.56-13.14 7.3-13.14 7.3a34.39 34.39 0 0 1 -11.43-25.28c0-8.53 2.84-11.51 3.55-12.5z" fill="#3f4d90" transform="translate(-463.28 -429.72)"/><path d="m470.28 447a41.64 41.64 0 0 0 10.25 2.45s0-2-.52-2.45-6.21-3.22-7.34-3-2.39 3-2.39 3z" fill="#475ca9" transform="translate(-463.28 -429.72)"/><path d="m15.02 31.81 5.64 4.4" fill="none" stroke="#475ca9" stroke-miterlimit="10" stroke-width=".5"/><path d="m509.62 464.85a3.09 3.09 0 0 0 2.66-2.09l3.83-11.52a3.13 3.13 0 0 1 2.65-2.15l-6.16.5a3.11 3.11 0 0 0 -2.65 2.15l-3.83 11.52a2.75 2.75 0 0 1 -2.41 2.07z" fill="#fff" stroke="#ffb000" stroke-miterlimit="10" transform="translate(-463.28 -429.72)"/><path d="m509.81 465.28a3 3 0 0 0 2.8-1.89l4.65-11.22a3.06 3.06 0 0 1 2.8-1.89l-6.18.06a3.06 3.06 0 0 0 -2.8 1.89l-4.65 11.22a3.07 3.07 0 0 1 -2.8 1.9z" fill="#fff" stroke="#ffb000" stroke-miterlimit="10" transform="translate(-463.28 -429.72)"/><path d="m486.53 467.54s1.3 1.57 4.45 1.56c1.51 0 13.67-9.12 13.67-9.12s3.19-.36 4.09-1a9.86 9.86 0 0 0 2.33-4.38 1.41 1.41 0 0 0 -1.23.88c-.32.77-1.56.82-1.56.82l.26-.93s-1.16.17-2 .2-2.09 2.18-2.31 2.26-13.08 4.92-13.81 5.42a48.52 48.52 0 0 0 -3.89 4.29z" fill="#ffcfc9" transform="translate(-463.28 -429.72)"/><path d="m490.62 462.88c.19-.24-1.54-1.87-2.1-1.86s-5 4.52-4.67 5.36 1.78 2 2.45 1.48 4.32-4.98 4.32-4.98z" fill="#475ca9" transform="translate(-463.28 -429.72)"/><g stroke-linecap="round"><path d="m463.78 460.45s2.2 20.21 14.58 26.27c7.48 3.67 15.74 4.15 21.11 4" fill="none" stroke="#ffb000" stroke-miterlimit="10" transform="translate(-463.28 -429.72)"/><path d="m466.65 471.93h6.79a14.25 14.25 0 0 1 14.06 11.92l1 6.1" fill="none" stroke="#ffb000" stroke-miterlimit="10" transform="translate(-463.28 -429.72)"/><path d="m489.92 490.18v16.82a2.9 2.9 0 0 1 -1.45 2.51l-3.65 2.14a2.89 2.89 0 0 0 -1.44 2.51" fill="none" stroke="#ffb000" stroke-miterlimit="10" transform="translate(-463.28 -429.72)"/><circle cx="20.13" cy="86.9" fill="#fff" r="1.55" stroke="#ffb000" stroke-miterlimit="10"/><path d="m482 514.81a2 2 0 0 1 2.87 0" fill="none" stroke="#ffb000" stroke-miterlimit="10" transform="translate(-463.28 -429.72)"/><path d="m490.9 490.36v16.64a2.91 2.91 0 0 0 1.44 2.51l3.66 2.14a2.91 2.91 0 0 1 1.44 2.51" fill="none" stroke="#ffb000" stroke-miterlimit="10" transform="translate(-463.28 -429.72)"/><circle cx="34.14" cy="86.9" fill="#fff" r="1.55" stroke="#ffb000" stroke-miterlimit="10"/><path d="m498.85 514.81a2 2 0 0 0 -2.87 0" fill="none" stroke="#ffb000" stroke-miterlimit="10" transform="translate(-463.28 -429.72)"/><path d="m110.19 69.28h1.88v12.25h-1.88z" fill="#f0e1d4" stroke="#d8baa3" stroke-miterlimit="10"/><path d="m572.52 489.93h3.76v8.6a.89.89 0 0 1 -.89.89h-2a.89.89 0 0 1 -.89-.89v-8.6z" fill="#fff" stroke="#d8baa3" stroke-miterlimit="10" transform="translate(-463.28 -429.72)"/><path d="m580.86 513.34v2.8h-1.8v-1.14a2.1 2.1 0 0 0 -2.1-2.1h-5.1a2.1 2.1 0 0 0 -2.1 2.1v1.13h-1.76v-2.8a2.1 2.1 0 0 1 2.1-2.1h8.69a2.1 2.1 0 0 1 2.07 2.11z" fill="#f0e1d4" stroke="#d8baa3" stroke-miterlimit="10" transform="translate(-463.28 -429.72)"/><circle cx="116.67" cy="87.26" fill="#fff" r="1.86" stroke="#d8baa3" stroke-miterlimit="10"/><circle cx="105.51" cy="87.26" fill="#fff" r="1.86" stroke="#d8baa3" stroke-miterlimit="10" stroke-width="5"/><path d="m578.75 485.63 4.62-13.6h3.32l-4.63 13.6z" fill="#f0e1d4" stroke="#d8baa3" stroke-miterlimit="10" stroke-width="5" transform="translate(-463.28 -429.72)"/><path d="m577.84 485.63 4.63-13.6h3.31l-4.63 13.6z" fill="#fff" stroke="#d8baa3" stroke-miterlimit="10" stroke-width="5" transform="translate(-463.28 -429.72)"/><path d="m589.07 487.19c0 .26-.4.52-1.12.75-2.14.67-7.1 1.15-12.87 1.15a59.78 59.78 0 0 1 -12.31-1c-.2 0-.39-.1-.56-.16-.73-.22-1.12-.48-1.12-.74s.28-.44.81-.64c1.93-.73 7.1-1.26 13.18-1.26 7.73 0 13.99.85 13.99 1.9z" fill="#fff" stroke="#d8baa3" stroke-miterlimit="10" transform="translate(-463.28 -429.72)"/><path d="m589.07 487.19v1.49c0 1.05-6.26 1.9-14 1.9a59.77 59.77 0 0 1 -12.31-1c-1.08-.27-1.69-.58-1.69-.9v-1.5c0 .26.4.52 1.13.75l.56.15a59.78 59.78 0 0 0 12.31 1c5.77 0 10.73-.48 12.87-1.15.73-.22 1.13-.48 1.13-.74z" fill="#f0e1d4" stroke="#d8baa3" stroke-miterlimit="10" transform="translate(-463.28 -429.72)"/><path d="m595.87 463.46h-17.66a1.18 1.18 0 0 0 -1.06.82l-4.72 13.84a.75.75 0 0 0 .35 1 .83.83 0 0 0 .21.06h17.44a1.52 1.52 0 0 0 1.37-1.05l4.63-13.6a.75.75 0 0 0 -.35-1z" fill="#fff" stroke="#d8baa3" stroke-miterlimit="10" transform="translate(-463.28 -429.72)"/></g><path d="m559 476.32-2.91.45a6.18 6.18 0 0 1 -1.42 2l-1.24.67a.69.69 0 0 1 0-.64c.11-.2.79-.53.71-.8s-.48-.24-.66-.16c-.44.19-1.21.68-1.13 1.4a.56.56 0 0 1 -.44.66h-.05s-.29-.78-.31-.92a4.64 4.64 0 0 1 .45-2 10.87 10.87 0 0 1 2.43-1.34l3.89-1.77z" fill="#ffcfc9" transform="translate(-463.28 -429.72)"/><path d="m571.53 462.93s.61 8.52-1.3 10.69-8.36 3.44-11.32 2.77l-.74-2.58c2.93-2 7.2-4.57 7.2-4.57s1.42-11.94 3.69-13.43 2.39 5.44 2.47 7.12z" fill="#ffb000" transform="translate(-463.28 -429.72)"/><path d="m558.2 473.88a6.09 6.09 0 0 1 .67 2.44" fill="none" stroke="#fff" stroke-linecap="round" stroke-miterlimit="10" stroke-width="4" transform="translate(-463.28 -429.72)"/><path d="m95.13 44.6 1.65-.9" fill="none" stroke="#fff" stroke-linecap="round" stroke-miterlimit="10" stroke-width="4"/><path d="m95.3 45.06 1.05-.33" fill="none" stroke="#fff" stroke-linecap="round" stroke-miterlimit="10" stroke-width="4"/><path d="m95.48 45.71 2.09-.32" fill="none" stroke="#fff" stroke-linecap="round" stroke-miterlimit="10" stroke-width="4"/><path d="m95.59 46.22h1.03" fill="none" stroke="#fff" stroke-linecap="round" stroke-miterlimit="10" stroke-width="4"/><path d="m566.13 519h-7.92s-.11-1.27.9-1.45a3.62 3.62 0 0 0 1.68-1.05 2.52 2.52 0 0 0 3.18-.64 5.63 5.63 0 0 0 1-3.44 5.23 5.23 0 0 1 1.5 3.3 12.9 12.9 0 0 1 -.34 3.28z" fill="#e69900" transform="translate(-463.28 -429.72)"/><path d="m557.47 484.49c-1.32.18-4.2 2.55-2.57 7.23s7.9 19.33 7.84 20.68c-.08 1.81-2 4.13-2 4.13a2.52 2.52 0 0 0 3.18-.64 5.63 5.63 0 0 0 1-3.44s1-11.29-.75-20.52c-.74-4.22-4.32-7.77-6.7-7.44z" fill="#fab6ad" transform="translate(-463.28 -429.72)"/><path d="m572.29 519h-7.93s-.11-1.27.91-1.45a3.67 3.67 0 0 0 1.68-1.05 2.52 2.52 0 0 0 3.18-.64 5.63 5.63 0 0 0 1-3.44 5.28 5.28 0 0 1 1.5 3.3 13.36 13.36 0 0 1 -.34 3.28z" fill="#ffb000" transform="translate(-463.28 -429.72)"/><path d="m563.64 484.45c-1.08.8-2.17 2.59-.54 7.28s5.91 19.32 5.8 20.67-1.95 4.13-1.95 4.13a2.52 2.52 0 0 0 3.18-.64 5.63 5.63 0 0 0 1-3.44s2.29-14.85 1.42-20.52c-.63-4.25-5.94-9.7-8.91-7.48z" fill="#ffcfc9" transform="translate(-463.28 -429.72)"/><path d="m583.11 472.16a53.49 53.49 0 0 1 3.51 9c1.06 4.27-1.61 7.1-7.59 7.15-4.79 0-3.86 3.12-3.86 3.12a5.32 5.32 0 0 1 -4.67 0c-2.56-1.3-3.85-.62-5.68.08-2.3.9-4.38-.82-6.17-.93-2.68-.16-3.41 1.75-6.21.08 0 0-1-7.1 3.21-9.82s17.84-5.64 17.31-8.4z" fill="#3f4d90" transform="translate(-463.28 -429.72)"/><path d="m569.06 455.81c1.64-1.12 5.64-2.48 7.19-4l6.45-.31c2.1 1.63 6 3.81 6.92 5.13l-4.35 8.51s-1.9 6-2.18 7.18-7.07 1.44-10.33.24a49.5 49.5 0 0 0 -1.29-5.64 3.59 3.59 0 0 1 -1.66-3.53z" fill="#ffb000" transform="translate(-463.28 -429.72)"/><path d="m572.82 472.49a48.14 48.14 0 0 0 -1.41-5.56 3.75 3.75 0 0 1 -1.67-3.54 13.49 13.49 0 0 1 1.08-3.15" fill="none" stroke="#fff" stroke-linecap="round" stroke-miterlimit="10" stroke-width=".2" transform="translate(-463.28 -429.72)"/><path d="m574.34 477a1.63 1.63 0 0 1 -.86 1.16c-.78.37-.9.42-1.59.8a4.58 4.58 0 0 0 -1.16 1.28c-.54.65-1-1.31-.81-1.72a10.51 10.51 0 0 1 3-2.88 7.34 7.34 0 0 1 .94-.44c.83-.32 2.28-.84 3.9-1.41l.71 2.49z" fill="#ffcfc9" transform="translate(-463.28 -429.72)"/><path d="m577.7 473.81a54.61 54.61 0 0 1 7.85-4l-.38-7.76a6.48 6.48 0 0 1 1.92-5c1.18-1.16 2.59-1.63 3.38 1.36 0 0 2.61 11.23-.06 15.16-1.63 2.39-9 3.44-12 2.77z" fill="#ffb000" transform="translate(-463.28 -429.72)"/><path d="m577.7 473.81a54.61 54.61 0 0 1 7.85-4l-.28-4.68" fill="none" stroke="#fff" stroke-linecap="round" stroke-miterlimit="10" stroke-width=".2" transform="translate(-463.28 -429.72)"/><path d="m577.63 473.88a5.94 5.94 0 0 1 .68 2.44" fill="none" stroke="#fff" stroke-linecap="round" stroke-miterlimit="10" transform="translate(-463.28 -429.72)"/><path d="m114.57 44.6 1.65-.9" fill="none" stroke="#fff" stroke-linecap="round" stroke-miterlimit="10" stroke-width=".2"/><path d="m578 474.77 1-.33" fill="none" stroke="#fff" stroke-linecap="round" stroke-width=".2" transform="translate(-463.28 -429.72)"/><path d="m578.19 475.43 2.09-.33" fill="none" stroke="#fff" stroke-linecap="round" stroke-width=".2" transform="translate(-463.28 -429.72)"/><path d="m578.31 475.94h1" fill="none" stroke="#fff" stroke-linecap="round" stroke-width=".2" transform="translate(-463.28 -429.72)"/><path d="m587.16 447.05s-8.57 2.59-15.88 2.24c0 0-2.43-3-1-4.37s3.05-1.91 2.33-2.87-1.43-2.37.62-3.51 5.72-2.91 8-1.85c1.66.78.74 3 1.74 3a2.18 2.18 0 0 1 2.3 2 2.35 2.35 0 0 1 -.07.7c-.53 2.53 2.68.61 1.96 4.66z" fill="#722d54" transform="translate(-463.28 -429.72)"/><path d="m570.37 449.29s-2.83-2.88-.79-4.62c1.36-1.16 3.06-1.66 2.33-2.62s-1.42-2.37.63-3.51 5.77-2.44 8-2" fill="none" stroke="#722d54" stroke-miterlimit="10" stroke-width="3" transform="translate(-463.28 -429.72)"/><path d="m581.14 444.67s-.35 4.66 1.56 6.83c0 0-2.41 3.66-6.53 3.81s.08-3.5.08-3.5 1-1.36.86-4.82z" fill="#ffcfc9" transform="translate(-463.28 -429.72)"/><path d="m581.12 444.68c-.57 1.51-2 4.48-4.11 4.76a13.29 13.29 0 0 0 .1-2.44z" fill="#fab6ad" transform="translate(-463.28 -429.72)"/><path d="m581.15 444.66s-1.25 3.16-4.35 3.16c-.55 0-2.63-2.08-2.48-5.45s3.8-3.46 3.8-3.46-.26 3.53 2.83 4c0 0 .79-.7 1.1-.08s-.9 1.83-.9 1.83z" fill="#ffcfc9" transform="translate(-463.28 -429.72)"/><path d="m578.12 438.85s-1.17 3.59 1.93 4.08" fill="none" stroke="#722d54" stroke-miterlimit="10" stroke-width="3" transform="translate(-463.28 -429.72)"/><circle cx="118.67" cy="15.34" fill="none" r=".91" stroke="#fff" stroke-miterlimit="10" stroke-width=".2"/><path d="m582.63 451.22c.07 0 .21.27.16.31a8.11 8.11 0 0 1 -5.44.85c-2.42-.75-.86-1.43-.65-1.32.64.35 3.21.44 5.93.16z" fill="#fff" stroke="#d8baa3" stroke-linecap="round" stroke-miterlimit="10" stroke-width=".5" transform="translate(-463.28 -429.72)"/><path d="m583.62 450.94a2.62 2.62 0 0 1 2.2-1.18 2.11 2.11 0 0 1 -2.2 1.18z" fill="#fff" stroke="#d8baa3" stroke-linecap="round" stroke-miterlimit="10" stroke-width=".5" transform="translate(-463.28 -429.72)"/><path d="m583.72 451.08s2.39 0 3.29 1.74a3.2 3.2 0 0 1 -3.29-1.74z" fill="#fff" stroke="#d8baa3" stroke-linecap="round" stroke-miterlimit="10" stroke-width=".5" transform="translate(-463.28 -429.72)"/><circle cx="119.91" cy="21.43" fill="#fff" r=".49" stroke="#d8baa3" stroke-linecap="round" stroke-miterlimit="10" stroke-width=".5"/><path d="m569.92 479h-17.66a1.16 1.16 0 0 1 -1-.66l-5.43-11.34a.62.62 0 0 1 .3-.82.58.58 0 0 1 .26-.06h17.44a1.52 1.52 0 0 1 1.37.87l5.27 11.19a.61.61 0 0 1 -.29.82.75.75 0 0 1 -.26 0z" fill="#fff" stroke="#ffb000" stroke-miterlimit="10" transform="translate(-463.28 -429.72)"/><path d="m551.73 479h28a.65.65 0 0 1 .65.65.65.65 0 0 1 -.65.65h-28a.65.65 0 0 1 -.65-.65.65.65 0 0 1 .65-.65z" fill="#fff" stroke="#ffb000" stroke-miterlimit="10" transform="translate(-463.28 -429.72)"/></svg>