<svg viewBox="0 0 161.99 189.87" xmlns="http://www.w3.org/2000/svg"><g transform="translate(-449.14 -380.5)"><path d="m579.52 511.31h21.24a3.89 3.89 0 0 0 3.8-3l4.63-20.63a3.89 3.89 0 0 0 -2.94-4.65 4.09 4.09 0 0 0 -.85-.09" fill="none" stroke="#6562cf" stroke-linecap="round" stroke-miterlimit="10"/><path d="m540.33 511.31h21.24a3.89 3.89 0 0 0 3.8-3l4.63-20.67a3.89 3.89 0 0 0 -2.94-4.65 4.09 4.09 0 0 0 -.85-.09" fill="none" stroke="#6562cf" stroke-linecap="round" stroke-miterlimit="10"/><path d="m563.58 490.18h36.06a5.82 5.82 0 0 0 5.66-4.5l5.2-22.31a5 5 0 0 0 -3.7-6 5.36 5.36 0 0 0 -1.13-.13h-36.06a5.82 5.82 0 0 0 -5.66 4.5l-5.2 22.32a5 5 0 0 0 3.71 5.95 5.26 5.26 0 0 0 1.12.12z" fill="#fff" stroke="#6562cf" stroke-linecap="round" stroke-miterlimit="10"/><path d="m539.24 506.16h57.83a2.58 2.58 0 0 1 2.57 2.58 2.57 2.57 0 0 1 -2.57 2.57h-57.83a2.57 2.57 0 0 1 -2.58-2.57 2.58 2.58 0 0 1 2.58-2.58z" fill="#eaeeff" stroke="#6562cf" stroke-linecap="round" stroke-miterlimit="10"/><path d="m603.94 569.83-7.18-53.51a5.16 5.16 0 0 0 -5-5h-12.44a5.17 5.17 0 0 0 -5 5l-7.17 53.51" fill="none" stroke="#6562cf" stroke-linecap="round" stroke-miterlimit="10"/><path d="m558.34 511.31h-12.05a5.07 5.07 0 0 0 -4.88 5l-7.1 53.51" fill="none" stroke="#6562cf" stroke-linecap="round" stroke-miterlimit="10"/><path d="m501.49 458.29c-.78.51-2.6 4.36-2.63 4.82a25.87 25.87 0 0 0 2.05 3.9s.83 0 1-1.87c.2-2.25 1.18-3.09 2.6-3.41a1.55 1.55 0 0 1 1.77 1.2c.08.87-2.19 1.46-2.64 2a2.19 2.19 0 0 0 -.3 2l4.17-1.26c.6-.18 3.31-2.64 5-5.07a19.25 19.25 0 0 0 2 1.25c4.24 2.27 18.76 7.57 26.29 6.37s1.52-25.27 1.52-25.27c-11 .51-15.53-.88-16.36-1.18l1.7 11.12c-4.6-.13-15.92 1.74-15.92 1.74a38.4 38.4 0 0 0 -10.25 3.66z" fill="#f1921b"/><path d="m542.31 442.91h-.07c-10.94.5-15.52-.89-16.36-1.19l.4 2.73a41.8 41.8 0 0 0 17.15 3.48z" fill="#eb7200"/><path d="m541.21 473.32c-2.6-.19-7.31-30.44-7.31-30.44-5.8.08-12.82-2.63-12.82-2.63s4.8-15.72 6.46-19 13.52-8.85 14.92-9.26l23.14-5.3s19.76 4.91 26 9.95 11.09 26.36 11.09 26.36a60.77 60.77 0 0 1 -23.3 3.94l4 24.3c1.31 5.9 5.48 24.64-1.88 33.74.03-.05-5.89-29.14-40.3-31.66z" fill="#eaeeff"/><path d="m556.42 414.52 6.92 4.22 8.78-10.21-6.59-3.94a1.68 1.68 0 0 0 -2.31.58z" fill="#dbdaff"/><path d="m545.9 415.49-4.9 2.87.23-5.84 1.2-.49a13.79 13.79 0 0 1 3.47 3.46z" fill="#dbdaff"/><path d="m579.38 446.89a93.45 93.45 0 0 1 -1.87-10.5" fill="none" stroke="#c7bfff" stroke-linejoin="round"/><path d="m563.34 418.74-6.79-4s-6.51 7.75-6.7 9.1-.52 15.18-.52 15.18h-3.43" fill="none" stroke="#c7bfff" stroke-linejoin="round"/><path d="m541.15 418.36 4.62-2.62s4.18 6.62 4.08 8.14" fill="none" stroke="#c7bfff" stroke-linejoin="round"/><path d="m578.65 443.83s14.62.44 23.21-4.14" fill="none" stroke="#c7bfff" stroke-linejoin="round"/><path d="m534.9 467.78c0 .7 7.13.44 8.13.44s7.3.24 8.78 0c8 .66 43.88 3.27 48.05-2.52 4.82-6.71.51-21.89.51-21.89a59.35 59.35 0 0 1 -21 3.08l.89 5.76c-8.59 1.06-24.1 6.51-29.37 8.41-1.13-.36-5.44-1.66-7.61-1.16a12.77 12.77 0 0 0 -5.87 3.46c-.3.64-2.51 3.73-2.51 4.42z" fill="#f1921b"/><path d="m543 468.22c-1 0-8.14.26-8.14-.44s2.21-3.78 2.52-4.41a12.87 12.87 0 0 1 5.86-3.47s-3.11 4.32-.24 8.32" fill="#eb7200"/><path d="m600.38 443.81s-11.08 3.9-21 3.08l.89 5.76s13.23-2.12 20.58-6.91z" fill="#eb7200"/><path d="m504.51 570.37h24.49a9.76 9.76 0 0 0 0-1.07h-24.52a4.77 4.77 0 0 0 .03 1.07z" fill="#3f4d79"/><path d="m526.52 559.4c-.09 2.67 2.5 4.37 2.5 9.89h-24.5a5.48 5.48 0 0 1 4.54-5.7c4.89-1.07 9.35-2.5 9.8-4.19z" fill="#ffb000"/></g><path d="m69.54 183.89-2.24-3.31" fill="none" stroke="#3f4d79" stroke-linecap="round" stroke-miterlimit="10"/><path d="m67.79 184.29-2.1-3.04" fill="none" stroke="#3f4d79" stroke-linecap="round" stroke-miterlimit="10"/><path d="m65.51 184.43-1.7-2.78" fill="none" stroke="#3f4d79" stroke-linecap="round" stroke-miterlimit="10"/><path d="m552.87 475.46s-37.4-2.34-46.49 8.35 8.56 48.82 10.34 72c0 0 8.95.89 12.58 0s6.8-40.5-2.36-51.37c0 0 34.8 8 48.38-2.09s-16.81-26.7-22.45-26.89z" fill="#3c4564" transform="translate(-449.14 -380.5)"/><path d="m518.85 559.4a12 12 0 0 0 7.66 0l.73-3.3a74.84 74.84 0 0 1 -9.11-.17z" fill="#f1921b" transform="translate(-449.14 -380.5)"/><path d="m449.14 533.27 19.44 14.92c.28-.34.52-.66.75-1l-19.33-14.85a5.64 5.64 0 0 0 -.86.93z" fill="#3f4d79" transform="translate(-449.14 -380.5)"/><path d="m473.43 537.88c-1.7 2.07-.68 5-4 9.37l-19.43-14.92a5.5 5.5 0 0 1 7.08-1.76c4.53 2.14 8.94 3.72 10.32 2.65z" fill="#ffb000" transform="translate(-449.14 -380.5)"/><path d="m14.98 156.34.24-3.86" fill="none" stroke="#3f4d79" stroke-linecap="round" stroke-miterlimit="10"/><path d="m13.5 155.4.24-3.46" fill="none" stroke="#3f4d79" stroke-linecap="round" stroke-miterlimit="10"/><path d="m12.02 154.46.25-3.06" fill="none" stroke="#3f4d79" stroke-linecap="round" stroke-miterlimit="10"/><path d="m581.54 503.42c-.56 3-32.39 10.33-66.25-11.05 0 0-2.22 25.78-36.44 44.49 0 0-7.44-2.69-10.79-8.6 0 0 22.32-26.1 30.92-50.06 3.6-10.07 49-4.8 55.64-2.74s29.38 14.54 26.92 27.96z" fill="#3f4d79" transform="translate(-449.14 -380.5)"/><path d="m467.35 533.22s1.47 4.51 6.08 4.66l3-2.13a23.38 23.38 0 0 1 -7.11-5.62z" fill="#f1921b" transform="translate(-449.14 -380.5)"/><path d="m552.3 398.42s1.41 3.72 10.59 7.26c0 0-6.46 8.84-13 17.15 0 0-2.63-7.63-7.39-10.8z" fill="#f1921b" transform="translate(-449.14 -380.5)"/><path d="m542.46 412a14.45 14.45 0 0 1 3.56 3.63c3-2.27 6.43-6.25 7.44-9.14.5-1.43-.82-5.3-1.58-7.53z" fill="#eb7200" transform="translate(-449.14 -380.5)"/><path d="m552.48 399.15c0 1.21 1 4.93-.22 6.43-2.33 2.73-9 7.11-12.27 6.93-2.34-.13-5.65-10.26-6.14-11.78s-2.63-7.59-1.11-9.21 14.16-5.17 16.67.06c2.79 5.79 3.07 7.57 3.07 7.57z" fill="#f1921b" transform="translate(-449.14 -380.5)"/><path d="m527.53 388c1.25 8.12 6.54 9.19 17 3.08 4.77-2.79 1.4 2.21 4.08 6.56l.88.32c0-.43-.09-2.24.81-2.24 1.32 0 1.73 2 1.86 3.24l.5.18s.06-9.05-1.23-11.93c-3.17-7.13-12.36-3.28-14.61-2.07-7.14 3.86-9.29 2.86-9.29 2.86z" fill="#ffb000" transform="translate(-449.14 -380.5)"/><path d="m544.73 390.46c-7.41 5.85-13.24 7.24-16.13 3.8" fill="none" stroke="#ffb000" stroke-miterlimit="10" stroke-width="4" transform="translate(-449.14 -380.5)"/><path d="m553.16 401a3.33 3.33 0 0 1 -4.13-2.3l-.41-1.43a3.35 3.35 0 0 1 2.3-4.14 3.35 3.35 0 0 1 4.14 2.3l.41 1.44a3.35 3.35 0 0 1 -2.31 4.13z" fill="#fff" stroke="#3f4d79" stroke-linecap="round" stroke-miterlimit="10" transform="translate(-449.14 -380.5)"/><path d="m548.49 396.81.67 2.33a2.88 2.88 0 0 0 3.56 2l.9-.26h.11a2.88 2.88 0 0 1 -3.44-2l-.66-2.33a2.87 2.87 0 0 1 1.86-3.52h-.11l-.89.25a2.87 2.87 0 0 0 -2 3.54z" fill="#fff" stroke="#3f4d79" stroke-linecap="round" stroke-miterlimit="10" transform="translate(-449.14 -380.5)"/><path d="m551.37 393-2.72-9.56a3.35 3.35 0 0 0 -4.13-2.3l-9.68 2.75a1.88 1.88 0 0 0 -1.49 2.19 1.49 1.49 0 0 0 .09.3" fill="none" stroke="#3f4d79" stroke-linecap="round" stroke-miterlimit="10" transform="translate(-449.14 -380.5)"/><path d="m506.13 468.6h42.45a2.37 2.37 0 0 0 2.52-2.23 2.4 2.4 0 0 0 -.28-1.29l-14.38-24.31a7.21 7.21 0 0 0 -6.23-3.43h-42.46a2.38 2.38 0 0 0 -2.52 2.24 2.48 2.48 0 0 0 .29 1.28l14.38 24.31a7.21 7.21 0 0 0 6.23 3.43z" fill="#eaeeff" transform="translate(-449.14 -380.5)"/><path d="m506.54 469.38h40.72a2.34 2.34 0 0 0 2.47-2.19 2.43 2.43 0 0 0 -.29-1.26l-14.08-23.81a7.05 7.05 0 0 0 -6.1-3.36h-40.72a2.34 2.34 0 0 0 -2.47 2.19 2.41 2.41 0 0 0 .29 1.26l14.08 23.79a7 7 0 0 0 6.1 3.38z" fill="#c0c1ff" transform="translate(-449.14 -380.5)"/><path d="m506.13 468.6h42.45a2.37 2.37 0 0 0 2.52-2.23 2.4 2.4 0 0 0 -.28-1.29l-14.38-24.31a7.21 7.21 0 0 0 -6.23-3.43h-42.46a2.38 2.38 0 0 0 -2.52 2.24 2.48 2.48 0 0 0 .29 1.28l14.38 24.31a7.21 7.21 0 0 0 6.23 3.43z" fill="none" stroke="#6562cf" stroke-miterlimit="10" transform="translate(-449.14 -380.5)"/><rect fill="#d1d1ff" height="3.29" rx="1.64" stroke="#6562cf" stroke-miterlimit="10" width="80.49" x="54.93" y="88.13"/></svg>