<svg viewBox="0 0 151.75 189.84" xmlns="http://www.w3.org/2000/svg"><path d="m472.36 569.65h28a9.92 9.92 0 0 0 9.92-9.92v-44.79a5.27 5.27 0 0 0 -5.26-5.26h-40.02a5.25 5.25 0 0 1 -5.26-5.25v-9.27" fill="none" stroke="#d8baa3" stroke-miterlimit="10" transform="translate(-454.26 -380.3)"/><path d="m458.24 569.64h15.39a9.91 9.91 0 0 0 9.91-9.91v-44.63a5.42 5.42 0 0 0 -5.42-5.42" fill="none" stroke="#d8baa3" stroke-miterlimit="10" transform="translate(-454.26 -380.3)"/><path d="m458.79 455.76a4 4 0 0 0 -4 4 4.53 4.53 0 0 0 0 .52l3.94 30.45a21.86 21.86 0 0 0 21.68 19.06h43.79a2.23 2.23 0 0 0 2.24-2.23 2.26 2.26 0 0 0 -1.9-2.22c-9.39-1.53-23.69-5.81-25.13-18.77l-3.53-27.29a4 4 0 0 0 -4-3.51z" fill="#fff" stroke="#d8baa3" stroke-miterlimit="10" transform="translate(-454.26 -380.3)"/><path d="m454.79 460.31 3.94 30.45a21.86 21.86 0 0 0 21.68 19.06h43.79a2.23 2.23 0 0 0 2.23-2.23 2.21 2.21 0 0 0 -.24-1 2.15 2.15 0 0 1 -1.91 1.15h-42.28a21 21 0 0 1 -20.83-18.31l-3.78-29.26a3.86 3.86 0 0 1 3.34-4.33 2.7 2.7 0 0 1 .49 0h-2.38a4 4 0 0 0 -4 4 4.53 4.53 0 0 0 0 .52z" fill="#f0e1d4" stroke="#d8baa3" stroke-miterlimit="10" transform="translate(-454.26 -380.3)"/><path d="m55.98 172.37h-26.7" fill="none" stroke="#d8baa3" stroke-miterlimit="10"/><path d="m552 556.41c0 1.17-2.15 7.13-2.08 9.2s7.38 1.87 11 1.9h13.47s.88-4.78-3.83-5.44-10.42-6.69-10.42-6.69z" fill="#722d54" transform="translate(-454.26 -380.3)"/><path d="m500.45 558.5c-.23.81-2.69 4.36-2.69 7.78 0 0 4.45 3.07 6 3.27s14.49 0 14.49 0 .31-4.23-5.33-5c-4-.52-4.1-5.31-4.1-5.31z" fill="#722d54" transform="translate(-454.26 -380.3)"/><path d="m483.07 475.78s-6.29 11.34-3.83 19.4 17 6.73 17 6.73-4.65 18 2.15 55.83c0 0 5.36 2.87 14.52 1 0 0 1.37-17.63 7.72-56.59h11.54s-1.77 28.4 17.44 54.84a17.16 17.16 0 0 0 12.77-2.8s-8.47-38.53-9.9-62.17c-.42-7-11.82-13.1-37.67-16.17.02-.06-23.33 1.35-31.74-.07z" fill="#3f4d90" transform="translate(-454.26 -380.3)"/><path d="m520.93 502.68c.48-2.74 3.08-14.79-12.64-18.62" fill="none" stroke="#fff" stroke-linecap="round" stroke-miterlimit="10" transform="translate(-454.26 -380.3)"/><path d="m497.48 497.61a11.42 11.42 0 0 0 -1.64 4.44" fill="none" stroke="#fff" stroke-linecap="round" stroke-miterlimit="10" transform="translate(-454.26 -380.3)"/><path d="m523.44 466.28c6.06 9 33.08 5.15 40.11 4a4.74 4.74 0 0 0 2.21 1.44c1.66.34 6.7-.1 7.36.42a1.93 1.93 0 0 0 -1.32-2.1c-1.12-.5-3-.1-2.33-.82.48-.49 1.66-.38 4.16.4.94.3 4.38 1.95 5.27-.3l-3.38-3.21c-2.25-1.24-3.42-2.65-8.33-1.52a4.32 4.32 0 0 1 -2 0c-1.58-.71-15.18-6.4-27.42-8.39l-2.69-17.45c-4.45 4.07-12.28 7.59-12.82 7.82.02.02-1.39 15.9 1.18 19.71z" fill="#c36f0b" transform="translate(-454.26 -380.3)"/><path d="m522 450.46c2.7-1.2 9.41-4.5 13.39-9.58l-.32-2.1c-4.46 4.07-12.28 7.58-12.82 7.82.03 0-.11 1.58-.25 3.86z" fill="#b65a18" transform="translate(-454.26 -380.3)"/><path d="m490.66 407.38c-.94.95-7.1 5.61-20 13.25-2.32 1.37-9 7.78-8.57 21.37 0 0 4.92 4.73 17.37 7.37 0 0 2.78 20.1 3 25.38s31.71 2.94 33.07.91 6.69-20.26 6.76-29.05c0 0 13.25-5.82 15.55-11.3 0 0-5.54-12.85-9.26-15.15-4.43-2.74-16.4-6.43-23.65-12.38z" fill="#f0e1d4" transform="translate(-454.26 -380.3)"/><path d="m25.57 68.8.93-10.59" fill="none" stroke="#fff" stroke-linecap="round" stroke-miterlimit="10"/><g transform="translate(-454.26 -380.3)"><path d="m522.51 446.08a38.54 38.54 0 0 0 -1.25-12.92" fill="none" stroke="#fff" stroke-linecap="round" stroke-miterlimit="10"/><path d="m502.86 435.49c-2 11.87-7.19 28.79 1.42 34 0 0-2-4.6 2.74-15.41 6.62-15.14-.5-33.12-2.16-36.94l2.43-3.18-3.54-3.59-1 .16-3.24 3.87 3.53 3.51c.33 1 1.69 6.73-.18 17.58z" fill="#ffb000"/><path d="m502 411.83 3.94 3.94.33-.42-3.9-3.89a.26.26 0 0 0 -.37 0 .26.26 0 0 0 0 .35z" fill="#fff"/><path d="m500.63 413.42 4.61 4.61c-.14-.36-.28-.67-.38-.91l.1-.13-3.96-3.99a.26.26 0 0 0 -.37 0 .25.25 0 0 0 0 .34z" fill="#fff"/><path d="m503.07 418c.06.21.15.54.24 1l3.6 3.6-.37-1.12z" fill="#fff"/><path d="m503.68 421.67c0 .25 0 .52.06.8l4.35 4.29c-.08-.34-.17-.67-.26-1z" fill="#fff"/><path d="m503.82 425.73 5.13 5.06c-.05-.31-.11-.61-.17-.91l-5-4.89z" fill="#fff"/><path d="m503.66 429.15 5.87 5.77-.09-.83-5.73-5.63c-.01.23-.03.46-.05.69z" fill="#fff"/><path d="m503.33 432.4 6.45 6.34c0-.26 0-.51 0-.77l-6.34-6.23c-.06.26-.09.43-.11.66z" fill="#fff"/><path d="m502.82 435.71 6.89 6.68c0-.23 0-.46 0-.7l-6.82-6.61c0 .14-.05.28-.07.42a1.91 1.91 0 0 1 0 .21z" fill="#fff"/><path d="m502.2 439.06 7.12 6.92c0-.21.07-.43.1-.64l-7.11-6.9c-.03.21-.07.42-.11.62z" fill="#fff"/><path d="m501.52 442.48 7.11 6.9c.06-.2.1-.4.15-.59l-7.13-6.92c-.05.2-.09.41-.13.61z" fill="#fff"/><path d="m500.85 445.93 6.79 6.59c.07-.19.14-.37.2-.55l-6.84-6.66c-.07.2-.11.41-.15.62z" fill="#fff"/><path d="m500.21 449.65 6.15 6 .21-.53-6.27-6.12z" fill="#fff"/><path d="m499.73 453.26 5.54 5.38c.06-.19.12-.37.19-.56l-5.66-5.48c-.02.22-.05.4-.07.66z" fill="#fff"/><path d="m499.47 457.11 4.93 4.78c0-.2.09-.4.14-.6l-5-4.89c-.06.23-.06.47-.07.71z" fill="#fff"/><path d="m499.56 460.3.09.82 4.26 4.13c0-.21 0-.44.06-.67z" fill="#fff"/><path d="m511.88 412.12c-1.76 1.39-3.8 2.81-3.8 2.81l-4.82-4.82-5 5.66c-8.15-.71-12-5.29-12-5.29" fill="none" stroke="#fff" stroke-linecap="round" stroke-miterlimit="10"/><path d="m518.73 459h-1a2.58 2.58 0 0 0 -2.57 2.58v3.95a2.57 2.57 0 0 0 2.57 2.58h1" fill="none" stroke="#722d54" stroke-miterlimit="10" stroke-width=".5"/></g><rect fill="#fff" height="13.2" rx="5.1" stroke="#722d54" stroke-miterlimit="10" stroke-width=".5" width="10.2" x="64.35" y="76.77"/><path d="m464.56 443.73s-.88 19.16 1.68 22.29c7.92 9.64 41.79 3.69 41.79 3.69l.13-5s-14.56-5.22-27.58-7.33l-.88-7.87s-9.42-1.88-15.14-5.78z" fill="#c36f0b" transform="translate(-454.26 -380.3)"/><path d="m464.43 448.54c4.87 2.5 12.52 2.67 15.37 2.6l-.1-1.64s-9.42-1.87-15.14-5.77c0 0-.09 2-.13 4.81z" fill="#b65a18" transform="translate(-454.26 -380.3)"/><path d="m507.66 464.23s4.52-3.6 6.62-3 2.38 3.3 2.63 4a19.42 19.42 0 0 1 .47 3.88c0 .74-2.12 1.11-3 1.11a63.42 63.42 0 0 1 -7.38-.22c-1.06-.26.66-5.77.66-5.77z" fill="#c36f0b" transform="translate(-454.26 -380.3)"/><path d="m514.42 470.26c.84 0 2.35.05 2.82-.51.92-1.11.63-3.09.44-3.85s-1.3-4-3.4-4.63c0 0 2.56 4.69.14 9" fill="#b65a18" transform="translate(-454.26 -380.3)"/><path d="m506.87 463.81a1.17 1.17 0 0 1 1.13 1.19v4.1a1.17 1.17 0 0 1 -1.17 1.17 1.17 1.17 0 0 1 -1.17-1.17v-4.1a1.17 1.17 0 0 1 1.21-1.19z" fill="#ffb000" transform="translate(-454.26 -380.3)"/><rect fill="#3f4d79" height="4.47" rx="2.24" stroke="#fff" stroke-miterlimit="10" stroke-width=".2" width="4.47" x="50.39" y="84.49"/><path d="m509.12 468.44v-2.82a.83.83 0 0 0 -.83-.82h-2.82z" fill="#fff" opacity=".2" transform="translate(-454.26 -380.3)"/><path d="m490.66 399.94s2 3.85 0 7.44c-.64 1.19 14.76.5 14.76.5l-2-7.94z" fill="#c36f0b" transform="translate(-454.26 -380.3)"/><path d="m504.81 388a36.46 36.46 0 0 0 2.69 12c2.3 5.17-6.83 5-9.19 4.39a8.34 8.34 0 0 1 -3.9-2.56s-4.78-1.26-4.78-3.22c0-1.51 2.43-.78 2.43-.78s-1.35-10.16 1.07-10.68 11.41-1.47 11.68.85z" fill="#c36f0b" transform="translate(-454.26 -380.3)"/><path d="m492.18 398.11c.84.39 2.9-1.86 1.83-4.33-1.27-2.95-1.66-5.47.6-6s4.48 2.17 9.13.85 3.95-7.14-.05-7.6-4.53 2.56-5.17 2.62-5.06-1.9-7.52.66c-2 2.12-1.32 3.41-1.88 3.55a3 3 0 0 0 -2.34 2.94c.13 2 3.37 7 3.37 7a2.62 2.62 0 0 1 2.03.31z" fill="#722d54" transform="translate(-454.26 -380.3)"/><path d="m495.94 387.55c2.33.47 4.6 2.83 9.25 1.52s3.95-7.81-.05-8.27" fill="none" stroke="#722d54" stroke-miterlimit="10" transform="translate(-454.26 -380.3)"/><path d="m489.91 387.88a3 3 0 0 0 -3.67.84" fill="none" stroke="#722d54" stroke-miterlimit="10" stroke-width="3" transform="translate(-454.26 -380.3)"/><path d="m491.28 396.83a13.18 13.18 0 0 1 2.85 6.54c.33 3 2.29 5.34 7.27 5.14s7.74-1.57 8-3.21-2.17-5.92-2.17-5.92-1.83-3.12-4.52-2.52-3.22 5-4.92 5c-3.19 0-4.7-6-4.7-6z" fill="#722d54" transform="translate(-454.26 -380.3)"/><path d="m490.4 398.07v-14.78a1.63 1.63 0 0 1 1.64-1.64h4.67a1.63 1.63 0 0 1 1.64 1.64" fill="none" stroke="#d8baa3" stroke-linecap="round" stroke-miterlimit="10" transform="translate(-454.26 -380.3)"/><path d="m490.59 399.62v2.1a2.17 2.17 0 0 0 2.17 2.16h10.5" fill="none" stroke="#d8baa3" stroke-linecap="round" stroke-miterlimit="10" transform="translate(-454.26 -380.3)"/><ellipse cx="490.6" cy="399.22" fill="#fff" rx="2.12" ry="2.53" stroke="#d8baa3" stroke-linecap="round" stroke-miterlimit="10" transform="matrix(.9832867 -.18206391 .18206391 .9832867 -518.74 -284.31)"/><ellipse cx="503.18" cy="403.86" fill="#fff" rx="1.15" ry=".97" transform="matrix(.9832867 -.18206391 .18206391 .9832867 -519.38 -281.94)"/><path d="m526.5 454.46h69.35a1.64 1.64 0 0 0 1.56-1.71l8.1-43.93a1.65 1.65 0 0 0 -1.51-1.72h-69.4a1.64 1.64 0 0 0 -1.55 1.72l-8.11 43.93a1.64 1.64 0 0 0 1.56 1.71z" fill="#fff" stroke="#d8baa3" stroke-miterlimit="10" transform="translate(-454.26 -380.3)"/><path d="m528.19 454.46h67.81a1.58 1.58 0 0 0 1.5-1.65l7.8-42.23a1.58 1.58 0 0 0 -1.5-1.65h-67.8a1.58 1.58 0 0 0 -1.5 1.65l-7.79 42.23a1.58 1.58 0 0 0 1.48 1.65z" fill="#fff" stroke="#d8baa3" stroke-miterlimit="10" transform="translate(-454.26 -380.3)"/><path d="m561.15 439.89-3.75 14.17h3.75z" fill="#f0e1d4" transform="translate(-454.26 -380.3)"/><path d="m540.07 468.21v1.69l24.35-5.9 24.35 5.92v-1.69l-21.77-7.08v-20.85h-5.42v20.95z" fill="#fff" stroke="#d8baa3" stroke-miterlimit="10" transform="translate(-454.26 -380.3)"/><path d="m589 470h-83.29a2.67 2.67 0 0 0 -2.71 2.7v.7a2.67 2.67 0 0 0 2.66 2.67h83.34z" fill="#fff" transform="translate(-454.26 -380.3)"/><path d="m589 470h-83.29a2.67 2.67 0 0 0 -2.71 2.7v.7a2.67 2.67 0 0 0 2.66 2.67h83.34" fill="none" stroke="#d8baa3" stroke-miterlimit="10" transform="translate(-454.26 -380.3)"/><path d="m526.5 569.7v-93.52h-5.81v93.51z" fill="#fff" transform="translate(-454.26 -380.3)"/><path d="m526.5 478v-1.85h-5.81v6.44z" fill="#f0e1d4" transform="translate(-454.26 -380.3)"/><path d="m526.5 569.7v-93.52h-5.81v93.55" fill="none" stroke="#d8baa3" stroke-miterlimit="10" transform="translate(-454.26 -380.3)"/></svg>