<svg viewBox="0 0 25.97 14.14" xmlns="http://www.w3.org/2000/svg"><g fill="#fff"><path d="m241.1 217.68h-.53a3.38 3.38 0 0 1 -3.37-3.38v-7.38a3.38 3.38 0 0 1 3.37-3.38h.53a.5.5 0 0 1 .5.5v13.14a.5.5 0 0 1 -.5.5zm-.53-13.15a2.39 2.39 0 0 0 -2.38 2.39v7.38a2.39 2.39 0 0 0 2.38 2.39z" transform="translate(-237.2 -203.54)"/><path d="m259.81 217.68h-2.13a.5.5 0 0 1 -.5-.5v-13.18a.5.5 0 0 1 .5-.5h2.13a3.38 3.38 0 0 1 3.36 3.38v7.38a3.37 3.37 0 0 1 -3.36 3.42zm-1.63-1h1.63a2.39 2.39 0 0 0 2.37-2.39v-7.38a2.39 2.39 0 0 0 -2.37-2.39h-1.63z" transform="translate(-237.2 -203.54)"/><circle cx="22.87" cy="7.07" r=".95"/><g transform="translate(-237.2 -203.54)"><path d="m239.4 208.25a.32.32 0 0 1 .32.32v4.08a.32.32 0 0 1 -.32.32.32.32 0 0 1 -.32-.32v-4.08a.32.32 0 0 1 .32-.32z"/><path d="m257.68 217.68h-16.58a.5.5 0 0 1 -.5-.5v-13.18a.5.5 0 0 1 .5-.5h16.58a.5.5 0 0 1 .5.5v13.14a.5.5 0 0 1 -.5.54zm-16.08-1h15.58v-12.15h-15.58z"/></g></g></svg>