<svg viewBox="0 0 14.14 25.97" xmlns="http://www.w3.org/2000/svg"><g fill="#fff"><path d="m243.12 201.52v-.52a3.37 3.37 0 0 1 3.38-3.37h7.38a3.39 3.39 0 0 1 3.38 3.37v.53a.5.5 0 0 1 -.5.5h-13.15a.49.49 0 0 1 -.49-.51zm13.14-.53a2.36 2.36 0 0 0 -2.38-2.37h-7.39a2.36 2.36 0 0 0 -2.38 2.37z" transform="translate(-243.12 -197.62)"/><path d="m243.12 220.23v-2.13a.5.5 0 0 1 .5-.5h13.14a.51.51 0 0 1 .5.5v2.13a3.39 3.39 0 0 1 -3.38 3.37h-7.38a3.37 3.37 0 0 1 -3.38-3.37zm1-1.63v1.63a2.37 2.37 0 0 0 2.39 2.37h7.38a2.39 2.39 0 0 0 2.39-2.37v-1.63z" transform="translate(-243.12 -197.62)"/><circle cx="7.07" cy="22.87" r=".95"/><g transform="translate(-243.12 -197.62)"><path d="m252.54 199.82a.31.31 0 0 1 -.31.32h-4.08a.32.32 0 0 1 -.32-.32.32.32 0 0 1 .32-.32h4.08a.32.32 0 0 1 .31.32z"/><path d="m243.12 218.1v-16.57a.5.5 0 0 1 .5-.5h13.14a.5.5 0 0 1 .5.5v16.57a.5.5 0 0 1 -.5.5h-13.15a.49.49 0 0 1 -.49-.5zm1-16.07v15.57h12.15v-15.6z"/></g></g></svg>