<svg viewBox="0 0 16.11 15.43" xmlns="http://www.w3.org/2000/svg"><path d="m251.22 203.53 1.61 3.26a1.13 1.13 0 0 0 .86.62l3.6.52a1.14 1.14 0 0 1 .63 1.94l-2.61 2.54a1.16 1.16 0 0 0 -.32 1l.61 3.59a1.12 1.12 0 0 1 -1.64 1.19l-3.22-1.69a1.17 1.17 0 0 0 -1.06 0l-3.23 1.69a1.13 1.13 0 0 1 -1.53-.47 1.19 1.19 0 0 1 -.11-.72l.61-3.59a1.1 1.1 0 0 0 -.32-1l-2.61-2.54a1.14 1.14 0 0 1 0-1.61 1.2 1.2 0 0 1 .64-.33l3.6-.52a1.13 1.13 0 0 0 .86-.62l1.61-3.26a1.13 1.13 0 0 1 2 0" fill="#8cc9ba" transform="translate(-242.15 -202.89)"/></svg>