<svg viewBox="0 0 12.93 16.04" xmlns="http://www.w3.org/2000/svg"><path d="m248.23 202.84a.54.54 0 0 0 -.41.29c-.07.14-.12.29-.21.49a5.2 5.2 0 0 1 -.32.62c-.26.41-.54.67-.9.67h-1.9a.52.52 0 0 0 -.52.52v5.18a7.39 7.39 0 0 0 2.36 5.35 11.5 11.5 0 0 0 3.66 2.38.53.53 0 0 0 .39 0 11.39 11.39 0 0 0 3.62-2.34 7.39 7.39 0 0 0 2.36-5.35v-5.18a.52.52 0 0 0 -.52-.52h-1.84c-.35 0-.64-.26-.9-.67a5.2 5.2 0 0 1 -.32-.62c-.09-.2-.14-.35-.21-.49a.52.52 0 0 0 -.46-.29zm.4 1h3.12l.06.15a5.62 5.62 0 0 0 .4.77 2.19 2.19 0 0 0 1.79 1.24h1.38v4.66a6.28 6.28 0 0 1 -2.05 4.61 10.37 10.37 0 0 1 -3.13 2.06 10.55 10.55 0 0 1 -3.14-2.06 6.33 6.33 0 0 1 -2-4.61v-4.66h1.38a2.2 2.2 0 0 0 1.78-1.15 7 7 0 0 0 .4-.77 1.16 1.16 0 0 1 .06-.15zm1.56 4a1.9 1.9 0 0 0 -1.9 1.9 1.75 1.75 0 0 0 .51 1.2v1.38a1.05 1.05 0 0 0 1 1h.69a1.05 1.05 0 0 0 1-1v-1.32a1.75 1.75 0 0 0 .51-1.2 1.9 1.9 0 0 0 -1.81-1.95zm0 1a.86.86 0 0 1 .86.85.73.73 0 0 1 -.33.63.5.5 0 0 0 -.19.4v1.55h-.69v-1.55a.5.5 0 0 0 -.19-.4.76.76 0 0 1 -.33-.63.87.87 0 0 1 .85-.87z" fill="#8cc9ba" stroke="#8cc9ba" stroke-width=".5" transform="translate(-243.72 -202.59)"/></svg>