<svg viewBox="0 0 21 21" xmlns="http://www.w3.org/2000/svg"><g fill="none"><path d="m0 0h21v21h-21z"/><path d="m254.57 217.87h-8.64a1.92 1.92 0 0 1 -1.93-1.87v-6.72a1.92 1.92 0 0 1 1.92-1.92h8.64a1.93 1.93 0 0 1 1.92 1.92v6.72a1.93 1.93 0 0 1 -1.91 1.87z" stroke="#8cc9ba" stroke-linecap="round" stroke-linejoin="round" stroke-width="2" transform="translate(-239.69 -200.11)"/><path d="m254.57 207.31a4.33 4.33 0 0 0 -8.64 0" stroke="#8cc9ba" stroke-linecap="round" stroke-linejoin="round" stroke-width="2" transform="translate(-239.69 -200.11)"/></g><path d="m250.25 214.51a1 1 0 0 1 -1-1v-1.92a1 1 0 0 1 1-1 1 1 0 0 1 1 1v1.92a1 1 0 0 1 -1 1z" fill="#8cc9ba" transform="translate(-239.69 -200.11)"/></svg>