<svg viewBox="0 0 59.77 61" xmlns="http://www.w3.org/2000/svg"><path d="m512.32 521.48a9 9 0 1 1 9-9 9 9 0 0 1 -9 9m27.68-4.76h-.07a4.44 4.44 0 0 1 -2.23-3.88v-.6a4.41 4.41 0 0 1 2.23-3.88h.07a4.43 4.43 0 0 0 1.67-6 .21.21 0 0 0 0-.06l-5.69-9.88a4.46 4.46 0 0 0 -3.85-2.21 4.59 4.59 0 0 0 -2.26.59 4.34 4.34 0 0 1 -4.43 0c-.21-.11-.4-.25-.64-.37a4.41 4.41 0 0 1 -2.25-3.84 4.46 4.46 0 0 0 -4.43-4.48h-11.5a4.47 4.47 0 0 0 -4.47 4.47 4.43 4.43 0 0 1 -2.21 3.84c-.23.11-.41.23-.64.33a4.39 4.39 0 0 1 -2.21.63 4.9 4.9 0 0 1 -2.22-.59 4.45 4.45 0 0 0 -6.09 1.59l-5.71 9.87a4.43 4.43 0 0 0 1.57 6.07h.06l.08.05a4.53 4.53 0 0 1 2.22 3.88v.59a4.56 4.56 0 0 1 -2.22 3.89h-.08a4.42 4.42 0 0 0 -1.66 6v.06l5.71 9.87a4.38 4.38 0 0 0 3.84 2.22 4.45 4.45 0 0 0 2.25-.59 4.34 4.34 0 0 1 4.43 0l.63.34a4.41 4.41 0 0 1 2.22 3.84 4.46 4.46 0 0 0 4.48 4.53h11.4a4.45 4.45 0 0 0 4.43-4.47 4.38 4.38 0 0 1 2.25-3.84c.24-.11.42-.26.64-.37a4.44 4.44 0 0 1 4.43 0 4.49 4.49 0 0 0 6.1-1.63l5.69-9.88a4.42 4.42 0 0 0 -1.57-6.06h-.06" fill="#8cc9ba" transform="translate(-482.45 -482)"/></svg>