<svg viewBox="0 0 61.98 63.3" xmlns="http://www.w3.org/2000/svg"><path d="m512.29 521.79a9.32 9.32 0 1 1 9.33-9.31 9.31 9.31 0 0 1 -9.33 9.31m28.71-4.93h-.07a4.55 4.55 0 0 1 -2.31-4v-.62a4.53 4.53 0 0 1 2.31-4h.07a4.59 4.59 0 0 0 1.73-6.26v-.06l-5.9-10.26a4.64 4.64 0 0 0 -4-2.28 4.82 4.82 0 0 0 -2.34.62 4.51 4.51 0 0 1 -4.6 0c-.22-.12-.41-.27-.66-.38a4.57 4.57 0 0 1 -2.33-4 4.63 4.63 0 0 0 -4.59-4.65h-11.92a4.65 4.65 0 0 0 -4.65 4.64 4.56 4.56 0 0 1 -2.28 4c-.24.12-.42.24-.66.34a4.48 4.48 0 0 1 -2.28.66 5 5 0 0 1 -2.31-.61 4.61 4.61 0 0 0 -6.31 1.66l-5.9 10.14a4.59 4.59 0 0 0 1.63 6.29h.06l.07.05a4.69 4.69 0 0 1 2.31 4v.62a4.72 4.72 0 0 1 -2.31 4h-.07a4.59 4.59 0 0 0 -1.72 6.27v.05l5.91 10.26a4.57 4.57 0 0 0 4 2.3 4.78 4.78 0 0 0 2.34-.61 4.47 4.47 0 0 1 4.6 0c.24.11.42.24.66.34a4.57 4.57 0 0 1 2.28 4 4.63 4.63 0 0 0 4.63 4.64h11.86a4.62 4.62 0 0 0 4.6-4.64 4.56 4.56 0 0 1 2.34-4c.24-.1.43-.27.66-.38a4.61 4.61 0 0 1 4.6 0 4.65 4.65 0 0 0 6.34-1.69l5.9-10.25a4.6 4.6 0 0 0 -1.64-6.3" fill="#cfcfcf" transform="translate(-481.34 -480.85)"/></svg>