<svg viewBox="0 0 11.62 13.1" xmlns="http://www.w3.org/2000/svg"><path d="m253.9 204.06a2.08 2.08 0 0 1 2.09 2.08 2.12 2.12 0 0 1 -.61 1.48 2.09 2.09 0 0 1 -1.48.61 2.06 2.06 0 0 1 -1.41-.56l-4 2.34a2.9 2.9 0 0 1 .09.59 3.1 3.1 0 0 1 -.09.61l4 2.32a2.21 2.21 0 0 1 1.41-.54 2.09 2.09 0 0 1 0 4.17 2.07 2.07 0 0 1 -2.07-2.09 1.77 1.77 0 0 1 0-.51l-4.08-2.35a2.08 2.08 0 0 1 -2.81-.12 2.09 2.09 0 0 1 -.61-1.49 2.08 2.08 0 0 1 2.07-2.07 2.1 2.1 0 0 1 1.35.49l4.08-2.36a1.8 1.8 0 0 1 0-.52 2 2 0 0 1 .61-1.47 2 2 0 0 1 1.46-.61z" fill="#8cc9ba" transform="translate(-244.38 -204.06)"/></svg>