<svg viewBox="0 0 20.1 16" xmlns="http://www.w3.org/2000/svg"><g fill="#fff" transform="translate(-240.13 -202.57)"><path d="m255 206.76a1 1 0 0 0 -1.39 0 1 1 0 0 0 0 1.4 3.27 3.27 0 0 1 .11 4.63l-.11.11a1 1 0 0 0 0 1.38.93.93 0 0 0 .72.3 1 1 0 0 0 .7-.27 5.28 5.28 0 0 0 1.61-3.82 5.38 5.38 0 0 0 -1.64-3.73z"/><path d="m257.26 203.92a1 1 0 1 0 -1.26 1.48 7 7 0 0 1 .54 9.8 6.88 6.88 0 0 1 -.54.54 1 1 0 0 0 -.09 1.4 1 1 0 0 0 .74.34 1 1 0 0 0 .66-.26 9 9 0 0 0 3-6.65 8.81 8.81 0 0 0 -3.05-6.65z"/><path d="m250.29 202.69-6 4.47h-3.58a.6.6 0 0 0 -.59.59v5.61a.59.59 0 0 0 .59.59h3.58l6 4.49a.6.6 0 0 0 .84-.11.64.64 0 0 0 .12-.38v-14.8a.61.61 0 0 0 -.6-.59.77.77 0 0 0 -.36.13z"/></g></svg>