<svg viewBox="0 0 20.85 17.5" xmlns="http://www.w3.org/2000/svg"><g transform="translate(-239.75 -201.86)"><path d="m255.37 206.8a1 1 0 1 0 -1.38 1.42 3.28 3.28 0 0 1 .12 4.63l-.11.15a1 1 0 0 0 0 1.38 1 1 0 0 0 .72.3 1 1 0 0 0 .7-.28 5.21 5.21 0 0 0 1.61-3.81 5.37 5.37 0 0 0 -1.66-3.79z" fill="#fff"/><path d="m257.64 204a1 1 0 0 0 -1.32 1.48 6.94 6.94 0 0 1 0 10.34 1 1 0 0 0 .66 1.73 1 1 0 0 0 .65-.25 8.94 8.94 0 0 0 3-6.65 8.79 8.79 0 0 0 -2.99-6.65z" fill="#fff"/><path d="m250.67 202.73-6 4.47h-3.57a.59.59 0 0 0 -.6.59v5.61a.6.6 0 0 0 .59.6h3.59l6 4.49a.59.59 0 0 0 .83-.11.58.58 0 0 0 .12-.38v-14.8a.59.59 0 0 0 -.6-.59.55.55 0 0 0 -.36.12z" fill="none" stroke="#fff" stroke-width="1.5"/></g></svg>